<?xml version="1.0" encoding="utf-8"?>
<!-- Generator: Adobe Illustrator 24.3.0, SVG Export Plug-In . SVG Version: 6.00 Build 0)  -->
<svg version="1.1" id="Layer_1" xmlns="http://www.w3.org/2000/svg" xmlns:xlink="http://www.w3.org/1999/xlink" x="0px" y="0px"
	 viewBox="0 0 864 864" style="enable-background:new 0 0 864 864;" xml:space="preserve">
<path d="M850.94,509.71c-6.43-12.23-15.89-4.41-17.73-6.63c-6.61-7.76-16.28-2.35-22.09-8.68c-2.55-2.78-4.53-4.61-5.94-5.5
	c-26.79-16.9-38.71-53.64-58.82-38.37c-14.84,11.27-15.76,25.08-18.75,22.8c-18.18-14.05-78.08-77.46-111.75-116.49
	c-10.83-12.56-25.16,15.4-26.69,9.47c-2.28-9.08-9.55-22.37-14.44-14.42c-4.68,7.58-15.94,26.53-14.16,34.39
	c0.71,3.04-2.67-0.63-4.05,1.84c-14.14,24.86-14.2,39.96-19,27.57c-5.2-13.45-12.39-26.5-13.07-27.13
	c-5.87-5.45-50.28,96.37-50.38,96.41c-0.66,0.29,0.31,1.7-14.44-27.8c-2.26-4.56-2.11-2.62-36.02,35.61
	c-1.26,1.39-1.45,1.13-12.41,2.97c-1.89,0.34-2.51,1.67-4.49,4.28c-1.86,2.39-11.02-3.22-21.4,4.88
	c-33.01-25.75-50.37-48.67-68.05-42.24c-22.33,8.11-26.8,23.6-30.38,23.05c-5.68-0.9-6.66,1.37-8.54,0.21
	c-4.72-2.9-8.48-3.64-14.16-1.73c-32.73,10.87-51.35-58.4-64.63-57c-16.96,1.62-7.5,46.78-69.85-28.17
	c-13.73-16.54-27.82-13.31-38.51,2.79c-20.34,30.63-40.87,61.12-61.56,91.48c-9.74,14.27-16.92,13.5-16.91,17.19
	c0.01,4.9,349.05,2.62,384.28,2.83C872.07,515.34,854.25,515.92,850.94,509.71z"/>
</svg>
