<svg xmlns="http://www.w3.org/2000/svg" xmlns:xlink="http://www.w3.org/1999/xlink" width="760" zoomAndPan="magnify" viewBox="0 0 570 97.5" height="130" preserveAspectRatio="xMidYMid meet" version="1.0"><defs><clipPath id="50937fbae4"><path d="M 11.15625 5 L 111.140625 5 L 111.140625 42.289062 L 11.15625 42.289062 Z M 11.15625 5 " clip-rule="nonzero"/></clipPath></defs><g clip-path="url(#50937fbae4)"><path fill="#000000" d="M 25.933594 39.328125 C 25.554688 39.449219 25.195312 39.585938 24.835938 39.707031 C 24.578125 39.804688 24.335938 39.726562 24.15625 39.527344 C 24.015625 39.386719 23.917969 39.210938 23.796875 39.050781 C 23.71875 38.929688 23.675781 38.8125 23.617188 38.671875 C 23.476562 38.335938 23.199219 38.214844 22.859375 38.214844 C 22.699219 38.214844 22.519531 38.234375 22.378906 38.292969 C 21.839844 38.511719 21.300781 38.710938 20.78125 38.949219 C 20.222656 39.210938 19.664062 39.507812 19.105469 39.785156 C 18.945312 39.863281 18.765625 39.925781 18.585938 39.90625 C 18.265625 39.886719 18.046875 39.707031 18.046875 39.40625 C 18.046875 39.1875 17.945312 39.03125 17.804688 38.890625 C 17.585938 38.671875 17.347656 38.492188 17.085938 38.355469 C 16.867188 38.253906 16.667969 38.136719 16.449219 38.015625 C 15.96875 37.777344 15.6875 37.421875 15.75 36.804688 C 15.628906 36.882812 15.527344 36.941406 15.449219 37.003906 C 14.589844 37.699219 13.75 38.355469 12.953125 39.03125 C 12.472656 39.429688 12.171875 39.964844 11.914062 40.519531 C 11.894531 40.582031 11.875 40.640625 11.832031 40.699219 C 11.753906 40.839844 11.59375 40.917969 11.433594 40.878906 C 11.273438 40.839844 11.15625 40.699219 11.15625 40.539062 C 11.15625 40.441406 11.175781 40.324219 11.214844 40.222656 C 11.453125 39.625 11.773438 39.050781 12.234375 38.574219 C 12.53125 38.253906 12.890625 37.976562 13.210938 37.699219 C 13.992188 37.042969 14.789062 36.425781 15.628906 35.851562 C 16.289062 35.394531 16.945312 34.914062 17.605469 34.457031 C 18.144531 34.082031 18.722656 33.722656 19.324219 33.445312 C 19.683594 33.265625 20.042969 33.066406 20.382812 32.867188 C 20.921875 32.550781 21.5 32.292969 22.121094 32.132812 C 22.28125 32.09375 22.4375 32.011719 22.597656 31.953125 C 22.917969 31.835938 23.21875 31.675781 23.539062 31.578125 C 23.878906 31.457031 24.136719 31.277344 24.335938 30.980469 C 24.4375 30.820312 24.578125 30.683594 24.796875 30.660156 C 24.855469 30.640625 24.9375 30.582031 24.976562 30.503906 C 25.097656 30.285156 25.214844 30.046875 25.316406 29.828125 C 25.515625 29.390625 25.734375 28.972656 26.015625 28.59375 C 26.15625 28.394531 26.292969 28.175781 26.414062 27.980469 C 26.554688 27.738281 26.714844 27.542969 26.933594 27.382812 C 27.394531 27.042969 27.832031 26.6875 28.410156 26.546875 C 28.96875 26.429688 29.371094 26.070312 29.769531 25.710938 C 30.167969 25.335938 30.570312 24.9375 30.96875 24.539062 C 31.027344 24.480469 31.109375 24.402344 31.148438 24.339844 C 31.40625 23.921875 31.746094 23.605469 32.1875 23.386719 C 32.40625 23.269531 32.585938 23.089844 32.726562 22.890625 C 33.046875 22.414062 33.363281 21.9375 33.664062 21.4375 C 33.925781 21.023438 34.222656 20.625 34.582031 20.285156 C 35.140625 19.730469 35.683594 19.171875 36.222656 18.597656 C 36.5625 18.238281 36.980469 17.960938 37.398438 17.703125 C 37.878906 17.421875 38.339844 17.484375 38.738281 17.859375 C 39.136719 18.238281 39.496094 18.65625 39.875 19.054688 C 39.976562 19.171875 40.074219 19.292969 40.15625 19.410156 C 40.476562 19.847656 40.914062 20.148438 41.453125 20.285156 C 41.632812 20.347656 41.8125 20.40625 42.011719 20.445312 C 42.933594 20.625 43.710938 21.0625 44.449219 21.636719 C 44.871094 21.976562 45.1875 22.394531 45.449219 22.851562 C 45.628906 23.148438 45.828125 23.464844 46.027344 23.785156 C 46.089844 23.703125 46.128906 23.664062 46.167969 23.605469 C 46.269531 23.40625 46.367188 23.1875 46.425781 22.96875 C 46.585938 22.453125 46.847656 21.996094 47.1875 21.578125 C 47.40625 21.320312 47.605469 21.0625 47.824219 20.78125 C 48.046875 20.503906 48.246094 20.226562 48.445312 19.949219 C 48.683594 19.589844 49.003906 19.53125 49.363281 19.789062 C 49.464844 19.867188 49.5625 19.96875 49.664062 20.066406 C 49.960938 20.40625 50.261719 20.742188 50.582031 21.082031 C 50.703125 21.21875 50.839844 21.339844 51.0625 21.398438 C 51.28125 21.121094 51.480469 20.863281 51.699219 20.585938 C 51.800781 20.464844 51.878906 20.324219 51.980469 20.207031 C 52.460938 19.609375 52.9375 19.015625 53.417969 18.398438 C 53.597656 18.160156 53.777344 17.882812 53.917969 17.621094 C 54.175781 17.085938 54.496094 16.570312 54.9375 16.152344 C 55.476562 15.636719 56.015625 15.097656 56.554688 14.582031 C 57.351562 13.824219 57.972656 12.953125 58.453125 11.957031 C 58.691406 11.480469 58.972656 11.023438 59.25 10.566406 C 59.488281 10.148438 59.808594 9.8125 60.1875 9.492188 C 60.308594 9.394531 60.410156 9.292969 60.507812 9.175781 C 61.226562 8.359375 61.945312 7.542969 62.6875 6.730469 C 63.066406 6.3125 63.445312 5.914062 63.824219 5.515625 C 64.085938 5.238281 64.445312 5.101562 64.824219 5.019531 C 64.941406 5 65.0625 5 65.164062 5.039062 C 65.523438 5.179688 65.78125 5.4375 65.941406 5.777344 C 66.042969 6.015625 66.160156 6.234375 66.300781 6.453125 C 66.539062 6.808594 66.742188 7.207031 66.898438 7.625 C 67.140625 8.28125 67.480469 8.894531 67.839844 9.511719 C 68 9.789062 68.238281 9.96875 68.558594 10.089844 C 68.878906 10.207031 69.199219 10.289062 69.535156 10.308594 C 70.234375 10.367188 70.734375 10.726562 71.15625 11.242188 C 71.273438 11.402344 71.375 11.640625 71.394531 11.839844 C 71.472656 12.433594 71.773438 12.910156 72.054688 13.410156 C 72.214844 13.667969 72.453125 13.867188 72.710938 14.003906 C 73.050781 14.203125 73.390625 14.402344 73.710938 14.621094 C 73.890625 14.742188 74.050781 14.898438 74.210938 15.058594 C 74.46875 15.296875 74.710938 15.574219 74.96875 15.792969 C 75.390625 16.152344 75.808594 16.507812 76.246094 16.867188 C 76.308594 16.789062 76.386719 16.726562 76.449219 16.648438 C 76.925781 16.011719 77.425781 15.375 77.886719 14.71875 C 78.207031 14.261719 78.625 13.925781 79.105469 13.667969 C 79.402344 13.507812 79.683594 13.308594 79.921875 13.089844 C 80.0625 12.953125 80.222656 12.832031 80.382812 12.710938 C 80.742188 12.433594 81.0625 12.136719 81.359375 11.796875 C 81.519531 11.640625 81.699219 11.5 81.878906 11.359375 C 82.101562 11.203125 82.339844 11.222656 82.578125 11.382812 C 82.679688 11.460938 82.777344 11.519531 82.859375 11.621094 C 84.039062 12.929688 85.335938 14.105469 86.675781 15.238281 C 87.054688 15.574219 87.394531 15.933594 87.652344 16.371094 C 87.734375 16.507812 87.832031 16.648438 87.914062 16.789062 C 88.230469 17.363281 88.710938 17.78125 89.289062 18.097656 C 90.007812 18.496094 90.707031 18.894531 91.429688 19.292969 C 92.6875 19.988281 93.824219 20.882812 94.882812 21.835938 C 95.242188 22.15625 95.480469 22.570312 95.761719 22.949219 C 96.023438 23.328125 96.28125 23.703125 96.539062 24.082031 C 96.878906 24.539062 97.320312 24.859375 97.839844 25.117188 C 98.179688 25.273438 98.476562 25.492188 98.796875 25.691406 C 98.957031 25.792969 99.097656 25.949219 99.199219 26.089844 C 99.578125 26.605469 99.976562 27.144531 100.335938 27.679688 C 100.535156 27.980469 100.695312 28.316406 100.855469 28.632812 C 100.996094 28.933594 101.195312 29.171875 101.414062 29.410156 C 101.695312 29.6875 101.972656 29.964844 102.214844 30.265625 C 102.652344 30.78125 103.132812 31.238281 103.691406 31.65625 C 104.429688 32.210938 105.191406 32.75 105.96875 33.226562 C 106.6875 33.664062 107.285156 34.21875 107.746094 34.9375 C 108.285156 35.769531 108.84375 36.585938 109.382812 37.398438 C 109.703125 37.878906 110.0625 38.316406 110.484375 38.691406 C 110.5625 38.753906 110.664062 38.8125 110.761719 38.851562 C 111.023438 38.949219 111.140625 39.128906 111.101562 39.347656 C 111.0625 39.566406 110.863281 39.6875 110.601562 39.667969 C 109.984375 39.625 109.464844 39.367188 108.945312 39.070312 C 108.484375 38.792969 108.125 38.394531 107.886719 37.898438 C 107.605469 37.300781 107.167969 36.882812 106.628906 36.527344 C 105.6875 35.910156 104.789062 35.273438 103.851562 34.636719 C 103.769531 34.578125 103.691406 34.539062 103.589844 34.519531 C 103.632812 34.617188 103.671875 34.738281 103.710938 34.835938 C 103.832031 35.195312 103.972656 35.550781 104.089844 35.910156 C 104.132812 36.046875 104.109375 36.1875 104.132812 36.347656 C 104.152344 36.425781 104.152344 36.507812 104.191406 36.566406 C 104.589844 37.082031 104.769531 37.699219 104.890625 38.335938 C 105.007812 38.96875 105.410156 39.449219 105.886719 39.863281 C 106.109375 40.042969 106.347656 40.203125 106.585938 40.34375 C 106.96875 40.582031 107.308594 40.839844 107.605469 41.175781 C 107.6875 41.257812 107.746094 41.375 107.785156 41.476562 C 107.847656 41.632812 107.765625 41.8125 107.625 41.914062 C 107.488281 42.011719 107.328125 41.992188 107.1875 41.914062 C 107.105469 41.871094 107.046875 41.792969 106.988281 41.734375 C 106.707031 41.457031 106.386719 41.195312 106.027344 41 C 105.289062 40.582031 104.710938 39.984375 104.3125 39.230469 C 104.191406 38.992188 104.109375 38.730469 104.070312 38.472656 C 103.972656 37.917969 103.769531 37.421875 103.433594 36.941406 C 102.914062 36.207031 102.492188 35.414062 102.152344 34.558594 C 101.992188 34.140625 101.792969 33.722656 101.554688 33.367188 C 101.273438 32.96875 100.914062 32.628906 100.574219 32.253906 C 100.234375 31.875 99.855469 31.515625 99.535156 31.140625 C 98.777344 30.265625 98.296875 29.25 98.097656 28.117188 C 98.039062 27.738281 97.859375 27.5 97.558594 27.28125 C 97.082031 26.925781 96.539062 26.707031 95.960938 26.566406 C 95.460938 26.449219 95.121094 26.167969 94.882812 25.734375 C 94.664062 25.335938 94.402344 24.976562 94.105469 24.640625 C 93.644531 24.121094 93.207031 23.585938 92.746094 23.050781 C 92.566406 22.832031 92.386719 22.59375 92.226562 22.351562 C 91.96875 21.976562 91.6875 21.65625 91.308594 21.398438 C 90.46875 20.824219 89.628906 20.285156 88.691406 19.929688 C 88.410156 19.828125 88.113281 19.730469 87.832031 19.667969 C 87.234375 19.53125 86.753906 19.191406 86.433594 18.675781 C 86.195312 18.296875 85.996094 17.902344 85.796875 17.503906 C 85.496094 16.925781 85.175781 16.390625 84.777344 15.875 C 83.976562 14.859375 83.179688 13.824219 82.378906 12.792969 C 82.320312 12.710938 82.238281 12.632812 82.160156 12.535156 C 81.980469 13.011719 81.839844 13.46875 81.820312 13.945312 C 81.800781 14.304688 81.800781 14.660156 81.800781 15.019531 C 81.800781 15.335938 81.820312 15.65625 81.941406 15.953125 C 82 16.113281 81.980469 16.289062 81.960938 16.46875 C 81.878906 17.046875 81.761719 17.640625 81.679688 18.21875 C 81.621094 18.65625 81.621094 19.09375 81.859375 19.492188 C 81.980469 19.710938 82.058594 19.949219 82.058594 20.1875 C 82.058594 20.445312 81.980469 20.664062 81.761719 20.804688 C 81.519531 20.960938 81.28125 21.121094 81 21.261719 C 80.660156 21.417969 80.402344 21.300781 80.261719 20.941406 C 80.082031 20.464844 79.902344 19.988281 79.722656 19.511719 C 79.601562 19.210938 79.445312 18.933594 79.285156 18.65625 C 79.222656 18.535156 79.125 18.417969 78.984375 18.417969 C 78.605469 18.398438 78.363281 18.179688 78.164062 17.882812 C 78.105469 17.78125 78.027344 17.683594 77.964844 17.582031 C 77.867188 17.402344 77.746094 17.265625 77.546875 17.164062 C 77.425781 17.105469 77.347656 16.988281 77.226562 16.886719 C 77.066406 17.066406 76.90625 17.265625 76.746094 17.445312 C 77.226562 18.21875 77.726562 18.972656 78.207031 19.75 C 78.363281 20.027344 78.542969 20.304688 78.664062 20.585938 C 78.925781 21.160156 79.203125 21.738281 79.601562 22.253906 C 79.863281 22.59375 80.144531 22.890625 80.441406 23.226562 C 80.523438 23.128906 80.5625 23.070312 80.601562 23.007812 C 80.761719 22.75 80.941406 22.492188 81.101562 22.234375 C 81.222656 22.054688 81.402344 21.976562 81.621094 21.996094 C 82.300781 22.015625 82.917969 22.195312 83.5 22.550781 C 83.835938 22.75 84.199219 22.929688 84.578125 23.089844 C 85.097656 23.308594 85.59375 23.605469 86.054688 23.921875 C 86.214844 24.023438 86.335938 24.183594 86.496094 24.300781 C 86.914062 24.640625 87.332031 24.976562 87.773438 25.296875 C 88.113281 25.535156 88.351562 25.832031 88.492188 26.210938 C 88.792969 26.964844 89.128906 27.71875 89.628906 28.355469 C 90.1875 29.070312 90.789062 29.765625 91.386719 30.464844 C 91.628906 30.761719 91.90625 31.019531 92.167969 31.316406 C 92.566406 31.753906 92.886719 32.253906 93.144531 32.789062 C 93.445312 33.425781 93.746094 34.0625 94.042969 34.695312 C 94.105469 34.816406 94.144531 34.9375 94.265625 34.996094 C 94.324219 35.035156 94.363281 35.09375 94.402344 35.152344 C 94.964844 35.910156 95.523438 36.664062 96.179688 37.339844 C 96.300781 37.460938 96.421875 37.558594 96.5625 37.640625 C 97.058594 37.9375 97.558594 38.214844 98.058594 38.511719 C 98.140625 38.554688 98.238281 38.59375 98.339844 38.632812 C 98.597656 38.710938 98.71875 38.929688 98.636719 39.1875 C 98.558594 39.40625 98.320312 39.527344 98.078125 39.46875 C 98 39.449219 97.917969 39.40625 97.859375 39.367188 C 97.679688 39.269531 97.5 39.148438 97.300781 39.070312 C 97.179688 39.011719 97.058594 39.011719 96.941406 38.949219 C 96.78125 38.890625 96.621094 38.851562 96.5 38.753906 C 95.800781 38.253906 95.101562 37.757812 94.402344 37.261719 C 93.984375 36.984375 93.644531 36.625 93.425781 36.167969 C 93.304688 35.929688 93.183594 35.671875 93.066406 35.433594 C 93.046875 35.371094 93.003906 35.3125 93.003906 35.253906 C 93.003906 34.976562 92.824219 34.796875 92.6875 34.617188 C 92.605469 34.519531 92.527344 34.417969 92.445312 34.320312 C 91.628906 33.445312 90.847656 32.53125 90.1875 31.535156 C 89.96875 31.21875 89.75 30.878906 89.53125 30.5625 C 89.351562 30.285156 89.152344 30.027344 88.949219 29.765625 C 88.570312 29.269531 88.171875 28.792969 87.792969 28.296875 C 87.632812 28.078125 87.472656 27.859375 87.351562 27.640625 C 86.875 26.765625 86.273438 25.992188 85.515625 25.355469 C 85.175781 25.078125 84.816406 24.816406 84.4375 24.621094 C 84.039062 24.421875 83.679688 24.164062 83.277344 23.921875 C 83.019531 23.765625 82.777344 23.625 82.519531 23.464844 C 82.28125 23.328125 82.199219 23.347656 82.101562 23.605469 C 82 23.824219 81.941406 24.0625 81.859375 24.300781 C 81.820312 24.441406 81.859375 24.539062 81.960938 24.640625 C 82.558594 25.175781 82.757812 25.910156 82.980469 26.625 C 83.019531 26.746094 83 26.886719 82.980469 27.003906 C 82.859375 27.699219 82.800781 28.414062 82.597656 29.113281 C 82.480469 29.507812 82.359375 29.886719 82.261719 30.304688 C 82.179688 30.660156 82.140625 31.039062 82.101562 31.4375 C 82.238281 31.476562 82.378906 31.515625 82.5 31.554688 C 83.039062 31.65625 83.457031 31.933594 83.835938 32.351562 C 84.4375 33.027344 84.976562 33.722656 85.65625 34.320312 C 85.894531 34.519531 86.054688 34.796875 86.175781 35.09375 C 86.292969 35.433594 86.453125 35.75 86.59375 36.070312 C 86.675781 36.265625 86.753906 36.464844 86.734375 36.664062 C 86.695312 37.121094 86.675781 37.597656 86.613281 38.054688 C 86.59375 38.273438 86.496094 38.472656 86.394531 38.671875 C 86.195312 39.03125 85.835938 39.050781 85.554688 38.753906 C 85.394531 38.554688 85.234375 38.355469 85.117188 38.136719 C 84.855469 37.617188 84.515625 37.183594 84.097656 36.785156 C 83.777344 36.484375 83.519531 36.148438 83.359375 35.75 C 83.160156 35.292969 82.820312 34.976562 82.359375 34.777344 C 82.058594 34.65625 81.78125 34.5 81.460938 34.339844 C 81.441406 34.457031 81.421875 34.558594 81.402344 34.65625 C 81.359375 35.054688 81.339844 35.453125 81.261719 35.851562 C 81.203125 36.148438 81.121094 36.445312 80.980469 36.703125 C 80.683594 37.320312 80.324219 37.898438 80.003906 38.492188 C 79.804688 38.871094 79.523438 39.1875 79.164062 39.40625 C 79.003906 39.507812 78.863281 39.605469 78.765625 39.785156 C 78.722656 39.84375 78.664062 39.90625 78.605469 39.925781 C 78.324219 40.105469 77.984375 39.90625 77.984375 39.566406 C 77.984375 39.488281 78.027344 39.386719 78.046875 39.308594 C 78.085938 39.128906 78.125 38.929688 78.164062 38.753906 C 78.183594 38.632812 78.226562 38.511719 78.265625 38.414062 C 78.484375 37.699219 78.703125 36.984375 78.90625 36.265625 C 79.0625 35.691406 79.042969 35.09375 78.90625 34.519531 C 78.804688 34.0625 78.664062 33.605469 78.542969 33.148438 C 78.484375 32.90625 78.464844 32.648438 78.523438 32.410156 C 78.703125 31.714844 78.882812 31.039062 79.0625 30.34375 C 79.242188 29.648438 79.421875 28.933594 79.601562 28.21875 C 79.644531 28.078125 79.644531 27.917969 79.644531 27.78125 C 79.601562 27.402344 79.683594 27.042969 79.785156 26.667969 C 79.921875 26.191406 80.0625 25.730469 80.203125 25.253906 C 80.28125 25.015625 80.222656 24.777344 80.222656 24.519531 C 80.222656 24.183594 80.042969 23.984375 79.824219 23.785156 C 79.125 23.128906 78.542969 22.332031 78.164062 21.457031 C 77.867188 20.804688 77.507812 20.1875 77.085938 19.589844 C 76.90625 19.3125 76.746094 19.035156 76.585938 18.734375 C 76.425781 18.4375 76.269531 18.160156 76.027344 17.941406 C 75.609375 17.542969 75.210938 17.164062 74.789062 16.789062 C 74.390625 16.429688 74.011719 16.050781 73.613281 15.695312 C 73.410156 15.515625 73.210938 15.316406 72.972656 15.175781 C 72.691406 15 72.394531 14.839844 72.054688 14.640625 C 72.035156 14.78125 72.011719 14.898438 72.011719 15 C 71.992188 15.59375 71.992188 16.191406 72.09375 16.769531 C 72.132812 17.046875 72.171875 17.34375 72.054688 17.601562 C 71.894531 18 71.914062 18.398438 71.992188 18.796875 C 72.152344 19.492188 72.074219 20.167969 71.953125 20.863281 C 71.894531 21.199219 71.832031 21.519531 71.773438 21.855469 C 71.734375 22.132812 71.753906 22.414062 71.855469 22.691406 C 72.113281 23.328125 72.414062 23.945312 72.773438 24.519531 C 73.03125 24.957031 73.230469 25.414062 73.433594 25.871094 C 73.589844 26.25 73.632812 26.648438 73.453125 27.042969 C 73.230469 27.5 72.832031 27.582031 72.511719 27.183594 C 72.132812 26.726562 71.753906 26.25 71.375 25.773438 C 70.816406 25.035156 70.277344 24.300781 69.738281 23.585938 C 69.476562 23.226562 69.257812 22.851562 69.078125 22.453125 C 68.957031 22.175781 68.917969 21.914062 68.996094 21.617188 C 69.097656 21.300781 69.199219 20.980469 69.316406 20.664062 C 69.636719 19.789062 69.675781 20.027344 69.199219 19.3125 C 68.9375 18.894531 68.71875 18.476562 68.539062 18.019531 C 68.4375 17.78125 68.417969 17.542969 68.457031 17.304688 C 68.5 17.105469 68.539062 16.90625 68.578125 16.707031 C 68.617188 16.449219 68.636719 16.191406 68.65625 15.914062 C 68.679688 15.316406 68.679688 14.699219 68.71875 14.105469 C 68.757812 13.429688 68.558594 12.832031 68.320312 12.214844 C 68.078125 11.640625 67.820312 11.082031 67.558594 10.527344 C 67.539062 10.488281 67.519531 10.445312 67.480469 10.40625 C 67.140625 10.070312 66.921875 9.652344 66.71875 9.234375 C 66.460938 8.71875 66.261719 8.160156 66 7.644531 C 65.820312 7.265625 65.601562 6.910156 65.382812 6.550781 C 65.363281 6.511719 65.34375 6.472656 65.324219 6.472656 C 65.242188 6.433594 65.144531 6.371094 65.042969 6.390625 C 64.984375 6.410156 64.921875 6.511719 64.902344 6.589844 C 64.824219 7.007812 64.742188 7.425781 64.683594 7.863281 C 64.582031 8.539062 64.503906 9.195312 64.421875 9.871094 C 64.382812 10.289062 64.382812 10.707031 64.34375 11.121094 C 64.242188 12.335938 63.925781 13.507812 63.34375 14.601562 C 62.984375 15.257812 62.765625 15.933594 62.605469 16.648438 C 62.566406 16.886719 62.527344 17.125 62.527344 17.34375 C 62.527344 18.039062 62.546875 18.734375 62.566406 19.429688 C 62.585938 19.730469 62.527344 20.007812 62.386719 20.265625 C 62.167969 20.703125 61.847656 21.0625 61.507812 21.417969 C 61.207031 21.738281 60.886719 22.015625 60.628906 22.351562 C 60.210938 22.871094 59.851562 23.425781 59.449219 23.964844 C 59.308594 24.164062 59.25 24.421875 59.230469 24.660156 C 59.191406 25.136719 59.128906 25.59375 59.109375 26.070312 C 59.070312 26.667969 59.230469 27.222656 59.589844 27.71875 C 59.890625 28.15625 60.128906 28.613281 60.230469 29.132812 C 60.269531 29.351562 60.289062 29.589844 60.25 29.808594 C 60.148438 30.285156 59.949219 30.742188 59.671875 31.160156 C 59.429688 31.515625 59.191406 31.875 58.949219 32.230469 C 58.589844 32.769531 58.492188 33.34375 58.652344 33.980469 C 58.910156 35.054688 59.25 36.089844 59.648438 37.101562 C 60.03125 38.035156 60.429688 38.96875 60.789062 39.925781 C 60.96875 40.402344 61.109375 40.917969 61.246094 41.414062 C 61.308594 41.675781 61.167969 41.890625 60.949219 41.953125 C 60.808594 41.992188 60.667969 41.972656 60.546875 41.871094 C 60.367188 41.714844 60.167969 41.554688 60.007812 41.375 C 59.910156 41.257812 59.828125 41.117188 59.769531 40.976562 C 59.449219 40.300781 59.011719 39.707031 58.589844 39.109375 C 58.390625 38.832031 58.230469 38.511719 58.050781 38.234375 C 57.773438 37.796875 57.511719 37.359375 57.214844 36.964844 C 56.992188 36.664062 56.792969 36.347656 56.632812 36.007812 C 56.535156 35.789062 56.414062 35.570312 56.273438 35.351562 C 56.175781 35.195312 56.035156 35.054688 55.875 34.9375 C 55.65625 34.777344 55.394531 34.71875 55.117188 34.835938 C 54.816406 34.996094 54.515625 35.132812 54.277344 35.332031 C 53.796875 35.710938 53.339844 36.128906 52.859375 36.507812 C 52.417969 36.882812 51.960938 37.242188 51.519531 37.597656 C 50.980469 38.035156 50.441406 38.472656 49.902344 38.929688 C 49.042969 39.644531 48.066406 40.164062 46.988281 40.480469 C 46.6875 40.582031 46.347656 40.601562 46.046875 40.621094 C 45.609375 40.640625 45.347656 40.300781 45.449219 39.886719 C 45.609375 39.167969 45.867188 38.492188 46.269531 37.859375 C 46.988281 36.722656 47.726562 35.589844 48.605469 34.578125 C 48.984375 34.160156 49.324219 33.703125 49.683594 33.265625 C 49.761719 33.148438 49.824219 33.007812 49.882812 32.886719 C 49.921875 32.789062 49.902344 32.710938 49.824219 32.648438 C 49.683594 32.550781 49.542969 32.472656 49.382812 32.371094 C 49.304688 32.332031 49.222656 32.332031 49.144531 32.3125 C 48.144531 31.914062 47.066406 31.796875 46.027344 31.515625 C 45.589844 31.398438 45.25 31.179688 44.890625 30.921875 C 44.691406 30.761719 44.648438 30.523438 44.789062 30.304688 C 45.03125 29.964844 45.269531 29.628906 45.507812 29.308594 C 45.707031 29.070312 45.988281 28.914062 46.269531 28.792969 C 46.847656 28.554688 47.367188 28.21875 47.84375 27.800781 C 47.925781 27.738281 48.003906 27.660156 48.046875 27.582031 C 48.164062 27.203125 48.445312 26.925781 48.722656 26.667969 C 49.105469 26.347656 49.34375 25.929688 49.5625 25.492188 C 49.703125 25.214844 49.722656 24.898438 49.5625 24.621094 C 49.183594 23.964844 48.984375 23.246094 48.804688 22.511719 C 48.703125 22.15625 48.605469 21.796875 48.503906 21.398438 C 48.445312 21.4375 48.386719 21.480469 48.363281 21.519531 C 48.207031 21.71875 48.046875 21.894531 47.90625 22.09375 C 47.664062 22.414062 47.464844 22.730469 47.328125 23.109375 C 47.148438 23.625 46.886719 24.082031 46.566406 24.519531 C 46.46875 24.660156 46.40625 24.796875 46.308594 24.9375 C 46.246094 25.015625 46.167969 25.097656 46.089844 25.175781 C 45.988281 25.253906 45.886719 25.335938 45.90625 25.492188 C 45.90625 25.574219 45.867188 25.652344 45.808594 25.710938 C 45.308594 26.269531 44.828125 26.824219 44.332031 27.363281 C 43.972656 27.761719 43.511719 28.078125 43.09375 28.414062 C 42.792969 28.65625 42.511719 28.871094 42.234375 29.132812 C 41.832031 29.488281 41.453125 29.867188 41.054688 30.246094 C 40.953125 30.34375 40.855469 30.441406 40.773438 30.542969 C 40.195312 31.335938 39.554688 32.09375 39.058594 32.949219 C 38.777344 33.425781 38.378906 33.78125 37.980469 34.140625 C 37.738281 34.378906 37.5 34.617188 37.21875 34.816406 C 36.941406 35.054688 36.640625 35.253906 36.320312 35.453125 C 36.019531 35.652344 35.742188 35.851562 35.480469 36.109375 C 35.34375 36.246094 35.183594 36.367188 35.042969 36.484375 C 34.683594 36.824219 34.324219 37.160156 33.945312 37.480469 C 33.84375 37.558594 33.804688 37.660156 33.824219 37.796875 C 33.84375 37.898438 33.824219 38.015625 33.84375 38.117188 C 33.882812 38.472656 33.804688 38.832031 33.644531 39.148438 C 33.265625 39.964844 32.726562 40.640625 31.925781 41.097656 C 31.605469 41.277344 31.308594 41.476562 30.988281 41.675781 C 30.867188 41.753906 30.75 41.832031 30.6875 41.972656 C 30.570312 42.191406 30.347656 42.269531 30.109375 42.25 C 29.929688 42.230469 29.789062 42.152344 29.730469 41.972656 C 29.667969 41.792969 29.691406 41.632812 29.808594 41.496094 C 29.871094 41.433594 29.949219 41.375 30.007812 41.316406 C 30.25 41.15625 30.488281 41 30.726562 40.859375 C 31.007812 40.679688 31.289062 40.5 31.566406 40.34375 C 32.226562 39.964844 32.625 39.367188 32.925781 38.691406 C 32.984375 38.574219 33.003906 38.433594 33.003906 38.292969 C 33.003906 38.054688 32.984375 37.796875 32.964844 37.558594 C 32.945312 37.28125 33.003906 37.023438 33.144531 36.804688 C 33.265625 36.605469 33.386719 36.425781 33.542969 36.246094 C 33.863281 35.851562 34.203125 35.472656 34.542969 35.09375 C 34.664062 34.957031 34.761719 34.816406 34.78125 34.617188 C 34.824219 34.359375 34.960938 34.140625 35.164062 33.960938 C 35.300781 33.84375 35.421875 33.742188 35.582031 33.644531 C 36.421875 33.125 37.058594 32.410156 37.597656 31.617188 C 37.957031 31.058594 38.316406 30.503906 38.597656 29.886719 C 38.796875 29.410156 39.117188 28.992188 39.476562 28.613281 C 39.796875 28.257812 40.136719 27.9375 40.476562 27.582031 C 40.675781 27.382812 40.875 27.164062 41.015625 26.925781 C 41.335938 26.410156 41.8125 26.167969 42.394531 26.089844 C 42.710938 26.050781 43.03125 25.992188 43.351562 26.070312 C 43.511719 26.109375 43.652344 26.03125 43.789062 25.929688 C 44.289062 25.554688 44.808594 25.175781 45.308594 24.796875 C 45.570312 24.597656 45.589844 24.519531 45.429688 24.261719 C 45.109375 23.746094 44.789062 23.226562 44.488281 22.730469 C 44.449219 22.671875 44.410156 22.613281 44.351562 22.550781 C 43.691406 21.976562 43.011719 21.4375 42.132812 21.261719 C 41.914062 21.21875 41.695312 21.140625 41.472656 21.082031 C 40.65625 20.863281 40.015625 20.445312 39.515625 19.769531 C 39.277344 19.429688 38.976562 19.132812 38.71875 18.816406 C 38.699219 18.835938 38.679688 18.835938 38.65625 18.855469 C 38.679688 18.953125 38.699219 19.054688 38.738281 19.152344 C 39.039062 19.847656 38.9375 20.484375 38.558594 21.121094 C 38.257812 21.597656 38.078125 22.113281 37.898438 22.652344 C 37.621094 23.484375 37.257812 24.300781 36.941406 25.136719 C 36.621094 25.992188 35.941406 26.507812 35.222656 26.984375 C 35.0625 27.085938 34.882812 27.105469 34.703125 27.003906 C 34.523438 26.90625 34.464844 26.726562 34.484375 26.527344 C 34.523438 26.230469 34.582031 25.929688 34.664062 25.652344 C 34.863281 24.957031 34.960938 24.222656 35.0625 23.507812 C 35.082031 23.328125 35.082031 23.148438 35.003906 22.96875 C 34.921875 22.789062 34.863281 22.59375 34.78125 22.375 C 34.261719 23.226562 33.804688 24.0625 33.683594 25.054688 C 33.625 25.492188 33.566406 25.929688 33.523438 26.367188 C 33.464844 26.804688 33.324219 27.222656 33.085938 27.582031 C 33.023438 27.679688 32.964844 27.761719 32.886719 27.839844 C 31.847656 29.070312 31.1875 30.523438 30.507812 31.953125 C 30.410156 32.171875 30.328125 32.410156 30.308594 32.667969 C 30.25 33.105469 30.128906 33.503906 29.949219 33.902344 C 29.609375 34.71875 29.269531 35.53125 28.910156 36.347656 C 28.53125 37.222656 28.050781 38.054688 27.492188 38.832031 C 27.273438 39.128906 27.054688 39.449219 26.832031 39.746094 C 26.773438 39.824219 26.714844 39.886719 26.652344 39.945312 C 26.515625 40.042969 26.375 40.0625 26.214844 39.984375 C 26.054688 39.90625 25.976562 39.785156 25.976562 39.605469 C 25.894531 39.507812 25.914062 39.40625 25.933594 39.328125 Z M 28.609375 27.363281 C 28.511719 27.382812 28.472656 27.402344 28.429688 27.402344 C 28.152344 27.480469 27.933594 27.679688 27.691406 27.839844 C 27.433594 28 27.214844 28.21875 27.054688 28.515625 C 26.972656 28.65625 26.894531 28.792969 26.8125 28.914062 C 26.433594 29.429688 26.132812 29.984375 25.835938 30.5625 C 25.773438 30.703125 25.753906 30.820312 25.792969 30.960938 C 25.855469 31.179688 25.914062 31.417969 25.953125 31.65625 C 26.054688 32.113281 26.132812 32.570312 26.234375 33.027344 C 26.394531 33.824219 26.433594 34.597656 26.132812 35.371094 C 26.015625 35.652344 25.953125 35.96875 25.894531 36.265625 C 25.835938 36.507812 25.816406 36.746094 25.875 37.003906 C 25.996094 37.519531 26.09375 38.054688 26.214844 38.574219 C 26.214844 38.59375 26.234375 38.59375 26.253906 38.613281 C 26.292969 38.535156 26.3125 38.453125 26.355469 38.375 C 26.613281 37.617188 26.875 36.863281 27.152344 36.109375 C 27.273438 35.808594 27.394531 35.492188 27.550781 35.214844 C 28.09375 34.320312 28.472656 33.34375 28.871094 32.390625 C 28.929688 32.253906 28.96875 32.113281 28.929688 31.933594 C 28.832031 31.4375 28.851562 30.941406 29.050781 30.464844 C 29.128906 30.285156 29.191406 30.085938 29.210938 29.886719 C 29.25 29.667969 29.269531 29.429688 29.210938 29.230469 C 29.03125 28.574219 28.8125 27.980469 28.609375 27.363281 Z M 61.425781 14.582031 C 61.425781 14.222656 61.449219 13.867188 61.425781 13.507812 C 61.425781 13.390625 61.367188 13.269531 61.328125 13.148438 C 61.308594 13.070312 61.246094 12.992188 61.226562 12.910156 C 61.1875 12.710938 61.046875 12.613281 60.847656 12.652344 C 60.769531 12.671875 60.6875 12.710938 60.628906 12.753906 C 59.808594 13.25 59.210938 13.925781 58.890625 14.820312 C 58.710938 15.316406 58.453125 15.753906 58.132812 16.171875 C 57.574219 16.886719 56.992188 17.601562 56.375 18.257812 C 56.273438 18.359375 56.175781 18.476562 56.113281 18.597656 C 55.996094 18.835938 56.035156 19.171875 56.214844 19.332031 C 56.375 19.472656 56.613281 19.570312 56.933594 19.390625 C 57.074219 19.3125 57.234375 19.210938 57.414062 19.171875 C 57.914062 19.074219 58.273438 18.796875 58.589844 18.417969 C 59.070312 17.839844 59.609375 17.285156 60.25 16.867188 C 60.390625 16.769531 60.546875 16.6875 60.707031 16.628906 C 60.910156 16.570312 61.066406 16.449219 61.207031 16.3125 C 61.40625 16.09375 61.449219 15.832031 61.449219 15.574219 C 61.425781 15.277344 61.425781 14.917969 61.425781 14.582031 Z M 54.457031 26.03125 C 54.457031 25.613281 54.457031 25.195312 54.457031 24.777344 C 54.457031 24.660156 54.4375 24.539062 54.375 24.441406 C 54.316406 24.339844 54.257812 24.261719 54.257812 24.140625 C 54.238281 24.023438 54.15625 23.921875 54.039062 23.945312 C 53.957031 23.945312 53.859375 24.003906 53.777344 24.0625 C 53.738281 24.082031 53.738281 24.140625 53.71875 24.183594 C 53.339844 25.054688 52.9375 25.929688 52.558594 26.804688 C 52.480469 27.003906 52.460938 27.203125 52.480469 27.421875 C 52.539062 27.800781 52.578125 28.15625 52.640625 28.535156 C 52.679688 28.894531 52.738281 29.25 52.777344 29.609375 C 52.800781 29.765625 52.878906 29.90625 53.058594 29.945312 C 53.21875 29.984375 53.339844 29.886719 53.4375 29.765625 C 53.699219 29.449219 53.917969 29.113281 54.039062 28.734375 C 54.117188 28.496094 54.21875 28.257812 54.296875 28.019531 C 54.398438 27.738281 54.457031 27.460938 54.457031 27.164062 C 54.457031 26.785156 54.457031 26.410156 54.457031 26.03125 Z M 54.457031 26.03125 " fill-opacity="1" fill-rule="nonzero"/></g><path fill="#000000" d="M 64.960938 37.082031 C 64.644531 37.082031 64.421875 37.023438 64.242188 36.863281 C 63.625 36.386719 63.085938 35.851562 62.867188 35.074219 C 62.785156 34.816406 62.625 34.597656 62.425781 34.4375 C 62.167969 34.238281 61.96875 33.980469 61.886719 33.664062 C 61.765625 33.148438 61.425781 32.808594 61.027344 32.511719 C 60.769531 32.3125 60.707031 32.09375 60.769531 31.773438 C 60.847656 31.335938 60.949219 30.902344 61.089844 30.484375 C 61.148438 30.304688 61.269531 30.226562 61.449219 30.183594 C 61.96875 30.066406 62.328125 30.304688 62.625 30.683594 C 62.664062 30.722656 62.6875 30.78125 62.726562 30.800781 C 63.386719 31.417969 63.644531 32.210938 63.863281 33.027344 C 63.964844 33.40625 64.125 33.722656 64.382812 34 C 64.582031 34.199219 64.742188 34.457031 64.882812 34.71875 C 65.121094 35.152344 65.363281 35.589844 65.503906 36.089844 C 65.523438 36.167969 65.542969 36.226562 65.5625 36.308594 C 65.621094 36.703125 65.324219 37.082031 64.960938 37.082031 Z M 64.960938 37.082031 " fill-opacity="1" fill-rule="nonzero"/><path fill="#000000" d="M 76.925781 32.53125 C 76.90625 33.066406 76.808594 33.523438 76.648438 33.960938 C 76.585938 34.140625 76.449219 34.257812 76.246094 34.28125 C 76.046875 34.300781 75.910156 34.199219 75.828125 34.019531 C 75.730469 33.84375 75.648438 33.644531 75.589844 33.445312 C 75.488281 33.1875 75.410156 32.90625 75.328125 32.648438 C 75.289062 32.511719 75.230469 32.390625 75.1875 32.273438 C 74.949219 31.457031 74.492188 30.742188 73.972656 30.085938 C 73.8125 29.886719 73.671875 29.6875 73.550781 29.46875 C 73.390625 29.210938 73.429688 29.113281 73.613281 28.851562 C 73.8125 28.554688 74.050781 28.515625 74.371094 28.554688 C 74.871094 28.613281 75.347656 28.792969 75.808594 28.972656 C 76.007812 29.050781 76.128906 29.210938 76.207031 29.410156 C 76.425781 29.984375 76.605469 30.5625 76.6875 31.179688 C 76.726562 31.417969 76.789062 31.636719 76.828125 31.875 C 76.847656 32.132812 76.90625 32.371094 76.925781 32.53125 Z M 76.925781 32.53125 " fill-opacity="1" fill-rule="nonzero"/></svg>