<svg xmlns="http://www.w3.org/2000/svg" xmlns:xlink="http://www.w3.org/1999/xlink" width="200" zoomAndPan="magnify" viewBox="0 0 150 149.999998" height="200" preserveAspectRatio="xMidYMid meet" version="1.0"><defs><g/><clipPath id="25f77531dd"><path d="M 18 92 L 44 92 L 44 124.0625 L 18 124.0625 Z M 18 92 " clip-rule="nonzero"/></clipPath><clipPath id="cea31ca6e9"><path d="M 0 96 L 22 96 L 22 124.0625 L 0 124.0625 Z M 0 96 " clip-rule="nonzero"/></clipPath><clipPath id="77015c987c"><path d="M 53 42.3125 L 90 42.3125 L 90 99 L 53 99 Z M 53 42.3125 " clip-rule="nonzero"/></clipPath><clipPath id="bfdcaf84c8"><path d="M 37 50 L 97 50 L 97 124.0625 L 37 124.0625 Z M 37 50 " clip-rule="nonzero"/></clipPath><clipPath id="afc43d2a6c"><path d="M 11 81 L 44 81 L 44 124.0625 L 11 124.0625 Z M 11 81 " clip-rule="nonzero"/></clipPath><clipPath id="6aa6c96d1f"><path d="M 88 70 L 150 70 L 150 124.0625 L 88 124.0625 Z M 88 70 " clip-rule="nonzero"/></clipPath><clipPath id="5ed1408855"><path d="M 49 83 L 127 83 L 127 124.0625 L 49 124.0625 Z M 49 83 " clip-rule="nonzero"/></clipPath></defs><path fill="#d3d2d2" d="M 26.472656 96.476562 C 25.082031 94.902344 23.691406 93.328125 22.300781 91.753906 C 22.136719 91.570312 21.953125 91.378906 21.730469 91.289062 C 21.863281 91.84375 21.976562 92.394531 22.070312 92.933594 C 23.585938 94.160156 24.941406 95.378906 26.472656 96.476562 " fill-opacity="1" fill-rule="nonzero"/><path fill="#98adb3" d="M 20.289062 104.652344 C 20.292969 104.636719 20.296875 104.617188 20.300781 104.601562 C 20.296875 104.59375 20.292969 104.585938 20.289062 104.574219 L 20.289062 104.652344 " fill-opacity="1" fill-rule="nonzero"/><path fill="#d3d2d2" d="M 25.335938 98.8125 L 22.496094 96.128906 C 22.546875 96.53125 22.605469 96.941406 22.664062 97.359375 L 25.980469 101.429688 L 25.335938 98.8125 " fill-opacity="1" fill-rule="nonzero"/><g clip-path="url(#25f77531dd)"><path fill="#6d9198" d="M 40.203125 112.941406 C 38.792969 110.425781 36.871094 108.25 34.964844 106.089844 C 33 103.867188 31.035156 101.644531 29.074219 99.417969 C 28.203125 98.4375 27.335938 97.457031 26.472656 96.476562 C 24.941406 95.378906 23.585938 94.160156 22.070312 92.933594 C 22.210938 93.78125 22.3125 94.625 22.417969 95.480469 C 22.445312 95.695312 22.46875 95.910156 22.496094 96.128906 L 25.335938 98.8125 L 25.960938 101.347656 L 25.980469 101.429688 L 22.664062 97.359375 C 22.683594 97.480469 22.695312 97.59375 22.714844 97.71875 C 21.792969 100.046875 20.71875 102.160156 20.300781 104.601562 C 20.78125 105.808594 21.339844 106.957031 21.839844 108.089844 C 21.496094 110.019531 21.171875 111.945312 20.832031 113.875 C 20.238281 117.277344 19.613281 120.675781 18.796875 124.074219 L 39.328125 124.074219 C 40.5 121.863281 41.15625 119.179688 43.039062 117.523438 C 41.773438 116.234375 41.082031 114.511719 40.203125 112.941406 " fill-opacity="1" fill-rule="nonzero"/></g><g clip-path="url(#cea31ca6e9)"><path fill="#4f7378" d="M 19.824219 107.664062 L 18.570312 106.832031 L 13.605469 114.449219 L 13.886719 113.097656 L 14.410156 110.617188 L 17.882812 103.753906 L 19.925781 99.714844 L 19.726562 96.640625 L 18.703125 96.859375 L 17.167969 102.097656 L 15.070312 102.945312 L 14.957031 103.09375 L 11.644531 107.402344 C 9.554688 108.242188 7.742188 109.238281 6.136719 110.460938 C 4.898438 111.941406 3.664062 113.828125 2.511719 115.8125 C 0.847656 118.675781 -0.660156 121.738281 -1.792969 124.074219 L 18.796875 124.074219 C 19.613281 120.675781 20.238281 117.277344 20.832031 113.875 C 20.992188 112.960938 21.152344 112.046875 21.308594 111.128906 L 19.824219 107.664062 " fill-opacity="1" fill-rule="nonzero"/></g><path fill="#d3d2d2" d="M 20.289062 104.652344 L 20.289062 104.574219 C 20.292969 104.585938 20.296875 104.59375 20.300781 104.601562 C 20.71875 102.160156 21.792969 100.046875 22.714844 97.71875 C 22.457031 96.042969 22.328125 94.503906 22.070312 92.933594 C 21.976562 92.394531 21.863281 91.84375 21.730469 91.289062 C 21.664062 91.261719 21.597656 91.242188 21.523438 91.238281 C 21.117188 91.210938 20.804688 91.574219 20.5625 91.902344 C 18.394531 94.855469 16.382812 97.925781 14.535156 101.089844 C 13.726562 102.472656 12.945312 103.882812 11.890625 105.085938 C 10.625 106.535156 9.007812 107.636719 7.582031 108.929688 C 7.101562 109.363281 6.617188 109.882812 6.136719 110.460938 C 7.742188 109.238281 9.554688 108.242188 11.644531 107.402344 L 14.957031 103.09375 L 15.070312 102.945312 L 17.167969 102.097656 L 18.703125 96.859375 L 19.726562 96.640625 L 19.925781 99.714844 L 14.410156 110.617188 L 13.605469 114.449219 L 18.570312 106.832031 L 19.824219 107.664062 L 21.308594 111.128906 C 21.484375 110.117188 21.660156 109.101562 21.839844 108.089844 C 21.339844 106.957031 20.78125 105.808594 20.300781 104.601562 C 20.296875 104.617188 20.292969 104.636719 20.289062 104.652344 " fill-opacity="1" fill-rule="nonzero"/><path fill="#7f9ba0" d="M 34.863281 93.660156 L 34.773438 93.761719 Z M 34.863281 93.660156 " fill-opacity="1" fill-rule="nonzero"/><g clip-path="url(#77015c987c)"><path fill="#d3d2d2" d="M 75.769531 50.949219 L 81.5625 61.230469 L 88.589844 68.089844 L 83.765625 59.859375 L 89.574219 63.398438 C 83.09375 57.402344 77.699219 50.230469 73.777344 42.328125 C 73.550781 42.570312 73.324219 42.8125 73.097656 43.054688 L 71.125 50.730469 L 65.359375 57.808594 L 69.660156 68.617188 L 63.914062 85.695312 L 56.101562 90.691406 L 53.9375 98.46875 L 64.289062 88.402344 L 67.261719 93.789062 L 66.175781 86.46875 L 72.304688 69.285156 L 71.480469 71.59375 L 73.355469 85 L 76.777344 90.273438 L 74.5 71.757812 L 77.511719 71.589844 L 83.097656 76.578125 L 79.605469 69.207031 L 71.171875 64.214844 L 69.863281 58.363281 L 74.355469 57.332031 L 75.769531 50.949219 " fill-opacity="1" fill-rule="nonzero"/></g><path fill="#d3d2d2" d="M 55.242188 67.824219 C 55.082031 68.226562 54.925781 68.632812 54.769531 69.035156 L 57.691406 65.144531 L 62.84375 56.4375 L 72.40625 45.75 L 73.097656 43.054688 C 66.09375 50.550781 59.046875 58.320312 55.242188 67.824219 " fill-opacity="1" fill-rule="nonzero"/><path fill="#d3d2d2" d="M 40.671875 79.734375 L 41.121094 74.578125 C 38.003906 80.542969 34.949219 89.050781 32.800781 95.921875 L 34.488281 94.070312 L 39.8125 81.390625 L 41.347656 87.082031 L 44.414062 93.347656 L 40.671875 79.734375 " fill-opacity="1" fill-rule="nonzero"/><path fill="#d3d2d2" d="M 43.054688 83.75 L 43.023438 83.554688 L 43.050781 83.527344 L 42.902344 76.710938 L 46.285156 76.640625 C 43.582031 75.472656 41.234375 74.359375 41.234375 74.359375 C 41.195312 74.429688 41.160156 74.507812 41.121094 74.578125 L 40.671875 79.734375 L 44.414062 93.347656 L 44.632812 93.792969 L 43.054688 83.75 " fill-opacity="1" fill-rule="nonzero"/><path fill="#d3d2d2" d="M 65.398438 57.914062 L 57.847656 68.683594 L 55.941406 74.097656 L 63.9375 64.59375 L 69.632812 68.695312 L 69.660156 68.617188 L 65.398438 57.914062 " fill-opacity="1" fill-rule="nonzero"/><path fill="#4f7378" d="M 72.40625 45.75 L 62.84375 56.4375 L 57.691406 65.144531 L 54.769531 69.035156 C 54.21875 70.460938 53.652344 71.882812 52.777344 73.128906 C 51.625 74.773438 50.039062 75.984375 48.355469 77.105469 L 48.128906 77.324219 L 55.800781 80.378906 L 51.335938 81.988281 L 56.136719 90.667969 L 63.476562 85.976562 L 63.914062 85.695312 L 69.632812 68.695312 L 63.9375 64.59375 L 55.941406 74.097656 L 57.847656 68.683594 L 65.398438 57.914062 L 65.359375 57.808594 L 71.125 50.730469 L 72.40625 45.75 " fill-opacity="1" fill-rule="nonzero"/><g clip-path="url(#bfdcaf84c8)"><path fill="#6d9198" d="M 53.34375 100.601562 L 53.425781 100.300781 L 53.625 99.59375 Z M 89.574219 63.398438 L 83.765625 59.859375 L 88.589844 68.089844 L 81.5625 61.230469 L 75.769531 50.949219 L 74.355469 57.332031 L 69.863281 58.363281 L 71.171875 64.214844 L 79.605469 69.207031 L 80.144531 70.34375 L 82.90625 76.171875 L 83.097656 76.578125 L 77.511719 71.589844 L 74.5 71.757812 L 76.632812 89.082031 L 76.777344 90.273438 L 76.265625 89.484375 L 73.355469 85 L 72.539062 79.160156 L 71.480469 71.59375 L 66.175781 86.46875 L 67.261719 93.789062 L 64.289062 88.402344 L 53.9375 98.46875 L 56.101562 90.691406 L 56.136719 90.667969 L 51.335938 81.988281 L 55.800781 80.378906 L 48.128906 77.324219 L 48.355469 77.105469 C 48.226562 77.1875 48.101562 77.273438 47.976562 77.355469 C 47.410156 77.121094 46.839844 76.878906 46.285156 76.640625 L 42.902344 76.710938 L 43.050781 83.527344 L 43.023438 83.554688 L 44.542969 93.214844 L 44.632812 93.792969 L 43.726562 91.9375 L 43.511719 107.902344 L 43.539062 107.835938 L 40.121094 117.214844 L 37.632812 124.046875 L 37.621094 124.074219 L 61.058594 124.074219 L 63.921875 108.851562 L 63.949219 108.710938 L 64.890625 103.707031 L 71.570312 98.296875 L 74.628906 95.816406 L 77.386719 93.582031 L 82.375 85.390625 L 84.550781 81.816406 L 85.941406 79.535156 L 86.066406 79.328125 L 87.429688 77.085938 L 90.464844 76.589844 L 94.53125 71.109375 L 96.210938 68.847656 C 93.890625 67.167969 91.675781 65.34375 89.574219 63.398438 " fill-opacity="1" fill-rule="nonzero"/></g><g clip-path="url(#afc43d2a6c)"><path fill="#4f7378" d="M 41.175781 86.738281 L 41.347656 87.082031 L 39.8125 81.390625 L 34.488281 94.070312 L 34.773438 93.761719 L 34.863281 93.660156 L 34.773438 93.761719 L 32.800781 95.921875 C 31.90625 97.65625 31.003906 99.378906 30.035156 101.042969 C 27.152344 105.980469 23.554688 110.496094 19.390625 114.414062 L 15.429688 119.582031 L 11.808594 124.074219 L 37.621094 124.074219 L 43.511719 107.902344 L 43.726562 91.9375 L 41.175781 86.738281 " fill-opacity="1" fill-rule="nonzero"/></g><path fill="#d3d2d2" d="M 88.601562 89.175781 L 92.351562 93.238281 L 91.960938 91.976562 L 89.230469 89.25 L 88.46875 80.769531 L 91.304688 77.675781 L 91.730469 74.886719 L 90.464844 76.589844 L 87.46875 77.082031 L 87.257812 83.757812 L 88.601562 89.175781 " fill-opacity="1" fill-rule="nonzero"/><path fill="#d3d2d2" d="M 88.601562 89.175781 L 87.257812 83.757812 L 87.46875 77.082031 L 87.429688 77.085938 L 77.011719 94.199219 L 79.046875 93.210938 L 86.175781 83.277344 L 87.859375 89.496094 L 92.539062 93.839844 L 92.351562 93.238281 L 88.601562 89.175781 " fill-opacity="1" fill-rule="nonzero"/><path fill="#d3d2d2" d="M 95.542969 71.332031 L 96.449219 73.425781 L 96.414062 70.769531 L 97.777344 67.394531 C 97.128906 68.175781 96.277344 68.898438 96.277344 68.898438 C 96.253906 68.882812 96.230469 68.863281 96.210938 68.847656 L 91.730469 74.886719 L 91.304688 77.675781 L 91.347656 77.628906 L 97.433594 81.898438 L 93.875 76.78125 L 95.542969 71.332031 " fill-opacity="1" fill-rule="nonzero"/><path fill="#d3d2d2" d="M 115.195312 85.480469 C 114.828125 84.683594 114.519531 83.828125 113.894531 83.210938 C 113.097656 82.417969 111.9375 82.148438 110.902344 81.703125 C 104.875 79.101562 103.464844 70.675781 97.78125 67.390625 C 97.777344 67.390625 97.777344 67.394531 97.777344 67.394531 L 96.414062 70.769531 L 96.449219 73.425781 L 96.542969 73.648438 L 97.367188 70.570312 L 101.300781 73.648438 L 105.335938 81.371094 L 102.242188 95.535156 L 105.019531 91.609375 L 107.875 83.753906 L 111.472656 83.800781 L 115.628906 86.351562 C 115.476562 86.0625 115.328125 85.777344 115.195312 85.480469 " fill-opacity="1" fill-rule="nonzero"/><g clip-path="url(#6aa6c96d1f)"><path fill="#6d9198" d="M 142.390625 112.066406 C 140.976562 110.976562 139.558594 109.886719 138.140625 108.796875 C 137.378906 108.207031 136.605469 107.617188 135.71875 107.238281 C 134.945312 106.90625 134.105469 106.75 133.347656 106.386719 C 133.121094 106.277344 132.90625 106.148438 132.703125 106.011719 C 131.875 105.460938 131.183594 104.703125 130.515625 103.957031 C 127.976562 101.121094 125.4375 98.285156 122.898438 95.453125 C 122.113281 94.570312 121.324219 93.695312 120.539062 92.816406 C 118.730469 90.792969 116.898438 88.734375 115.628906 86.351562 L 111.472656 83.800781 L 107.875 83.753906 L 105.019531 91.609375 L 102.472656 95.210938 L 102.242188 95.535156 L 104.257812 86.3125 L 104.492188 85.242188 L 105.335938 81.371094 L 103.636719 78.121094 L 101.300781 73.648438 L 100.953125 73.371094 L 97.367188 70.570312 L 96.542969 73.648438 L 95.542969 71.332031 L 93.875 76.78125 L 97.433594 81.898438 L 97.273438 81.789062 L 91.347656 77.628906 L 91.3125 77.667969 L 88.46875 80.769531 L 89.230469 89.25 L 91.960938 91.976562 L 92.449219 93.542969 L 92.539062 93.839844 L 92.5 93.804688 L 96.683594 106.171875 L 126.953125 124.074219 L 151.652344 124.074219 L 142.390625 112.066406 " fill-opacity="1" fill-rule="nonzero"/></g><g clip-path="url(#5ed1408855)"><path fill="#4f7378" d="M 96.683594 106.171875 L 92.5 93.804688 L 92.101562 93.429688 L 87.859375 89.496094 L 87.835938 89.410156 L 86.175781 83.277344 L 79.046875 93.210938 L 77.011719 94.199219 L 77.386719 93.582031 L 64.890625 103.707031 L 49.558594 124.074219 L 126.953125 124.074219 L 96.683594 106.171875 " fill-opacity="1" fill-rule="nonzero"/></g><g fill="#000000" fill-opacity="1"><g transform="translate(14.867839, 124.021907)"><g><path d="M 0.125 0 C 0.113281 0 0.101562 -0.00390625 0.09375 -0.015625 C 0.0820312 -0.0234375 0.078125 -0.0351562 0.078125 -0.046875 C 0.078125 -0.0664062 0.0820312 -0.0820312 0.09375 -0.09375 C 0.101562 -0.101562 0.113281 -0.109375 0.125 -0.109375 C 0.144531 -0.109375 0.160156 -0.101562 0.171875 -0.09375 C 0.179688 -0.0820312 0.1875 -0.0664062 0.1875 -0.046875 C 0.1875 -0.0351562 0.179688 -0.0234375 0.171875 -0.015625 C 0.160156 -0.00390625 0.144531 0 0.125 0 Z M 0.125 0 "/></g></g></g></svg>